<svg xmlns="http://www.w3.org/2000/svg" width="19.175" height="12.944" viewBox="0 0 19.175 12.944">
  <path id="Icon_zocial-email" data-name="Icon zocial-email" d="M.072,15.865V5.214q0-.018.055-.351L6.4,10.226l-6.25,6.01a1.567,1.567,0,0,1-.074-.37ZM.9,4.123a.8.8,0,0,1,.314-.055H18.1a1.047,1.047,0,0,1,.333.055L12.147,9.5l-.832.666L9.669,11.52,8.023,10.17,7.191,9.5ZM.923,16.956,7.228,10.91l2.441,1.979L12.11,10.91l6.306,6.047a.888.888,0,0,1-.314.055H1.218a.837.837,0,0,1-.3-.055Zm12.019-6.731,6.25-5.362a1.1,1.1,0,0,1,.055.351V15.865a1.417,1.417,0,0,1-.055.37Z" transform="translate(-0.072 -4.068)" fill="#fff"/>
</svg>
