<svg xmlns="http://www.w3.org/2000/svg" width="46.22" height="44.66" viewBox="0 0 46.22 44.66">
  <g id="Group_452" data-name="Group 452" transform="translate(0.498 0.5)">
    <g id="website_x2C__Find_Home_x2C__magnifier_x2C__magnifying_x2C__find_house" transform="translate(0 0)">
      <g id="XMLID_751_">
        <path id="XMLID_925_" d="M46.72,17.313V4.059A1.564,1.564,0,0,0,45.16,2.5H3.059A1.564,1.564,0,0,0,1.5,4.059V39.923a1.564,1.564,0,0,0,1.559,1.559h42.1a1.564,1.564,0,0,0,1.559-1.559V17.313Z" transform="translate(-1.498 -2.5)" fill="#f2f4f5"/>
        <path id="XMLID_926_" d="M1.5,7.679V3.78c0-.862-.086-.78.808-.78H45.914c.892,0,.806-.083.806.78v3.9Z" transform="translate(-1.499 -2.221)" fill="#80d8ff"/>
        <rect id="XMLID_927_" width="45.22" height="2.339" transform="translate(0.002)" fill="#fff"/>
        <path id="XMLID_934_" d="M39.552,34.642a3.088,3.088,0,0,0-3.781-.474l-1.2-1.2a.733.733,0,0,0-.327-.184,14.872,14.872,0,1,0-.959.959.753.753,0,0,0,.184.329l1.2,1.2a3.1,3.1,0,0,0-.44,1.576,10.29,10.29,0,0,1-.457,1.559h7.474a1.546,1.546,0,0,0,1.308-.763Z" transform="translate(2.417 0.576)" fill="#dee4e7"/>
        <circle id="XMLID_940_" cx="14.034" cy="14.034" r="14.034" transform="translate(10.138 9.356)" fill="#fff"/>
        <path id="XMLID_950_" d="M30.737,33.576a2.33,2.33,0,0,1-1.654-.685l-3.9-3.9a2.34,2.34,0,0,1,3.309-3.309l3.9,3.9a2.339,2.339,0,0,1-1.654,3.993Z" transform="translate(11.366 10.084)" fill="#ffe0b2"/>
        <path id="XMLID_951_" d="M32.3,31.737a2.33,2.33,0,0,1-1.654-.685L25.185,25.6c-.03-.03-.05-.064-.078-.1a2.323,2.323,0,0,0,.076,3.214l3.9,3.9a2.343,2.343,0,0,0,3.31,0,2.312,2.312,0,0,0,.575-.984A2.3,2.3,0,0,1,32.3,31.737Z" transform="translate(11.366 10.364)" fill="#e6caa0"/>
        <path id="XMLID_955_" d="M29.12,27.829,27.56,26.27a.78.78,0,0,0-1.1,1.1l1.559,1.559a.78.78,0,1,0,1.1-1.1Z" transform="translate(12.334 10.667)" fill="#fff2de"/>
      </g>
      <g id="XMLID_748_" transform="translate(0.002)">
        <g id="XMLID_867_">
          <line id="XMLID_923_" x1="43.66" transform="translate(0.78 6.237)" fill="none" stroke="#455a64" stroke-linecap="round" stroke-linejoin="round" stroke-miterlimit="10" stroke-width="1"/>
          <path id="XMLID_897_" d="M46.72,38.364V4.059A1.564,1.564,0,0,0,45.16,2.5H3.059A1.564,1.564,0,0,0,1.5,4.059V39.923a1.564,1.564,0,0,0,1.559,1.559H18.652" transform="translate(-1.5 -2.5)" fill="none" stroke="#455a64" stroke-linecap="round" stroke-linejoin="round" stroke-miterlimit="10" stroke-width="1"/>
          <path id="XMLID_894_" d="M15.5,28.517V21.5h4.678v7.017" transform="translate(6.33 8.127)" fill="none" stroke="#455a64" stroke-linecap="round" stroke-linejoin="round" stroke-miterlimit="10" stroke-width="1"/>
          <circle id="XMLID_890_" cx="14.034" cy="14.034" r="14.034" transform="translate(10.135 9.356)" fill="none" stroke="#455a64" stroke-miterlimit="10" stroke-width="1.5"/>
          <line id="XMLID_880_" x2="0.156" transform="translate(3.119 3.119)" fill="none" stroke="#455a64" stroke-linecap="round" stroke-linejoin="round" stroke-miterlimit="10" stroke-width="1"/>
          <line id="XMLID_877_" x2="0.156" transform="translate(6.237 3.119)" fill="none" stroke="#455a64" stroke-linecap="round" stroke-linejoin="round" stroke-miterlimit="10" stroke-width="1"/>
          <line id="XMLID_873_" x2="0.156" transform="translate(9.356 3.119)" fill="none" stroke="#455a64" stroke-linecap="round" stroke-linejoin="round" stroke-miterlimit="10" stroke-width="1"/>
          <path id="XMLID_871_" d="M30.737,33.576a2.33,2.33,0,0,1-1.654-.685l-3.9-3.9a2.34,2.34,0,0,1,3.309-3.309l3.9,3.9a2.339,2.339,0,0,1-1.654,3.993Z" transform="translate(11.364 10.084)" fill="none" stroke="#455a64" stroke-linecap="round" stroke-linejoin="round" stroke-miterlimit="10" stroke-width="1"/>
          <line id="XMLID_869_" x2="2.454" y2="2.454" transform="translate(34.094 33.314)" fill="none" stroke="#455a64" stroke-linecap="round" stroke-linejoin="round" stroke-miterlimit="10" stroke-width="1"/>
        </g>
      </g>
    </g>
    <g id="Group_421" data-name="Group 421" transform="translate(14.047 16.225)">
      <path id="XMLID_520_" d="M16.942,26.5a7.124,7.124,0,0,1,6.5,4.2,14.3,14.3,0,0,1-20.159,0,7.124,7.124,0,0,1,6.5-4.2Z" transform="translate(-3.28 -13.84)" fill="#33a5b3"/>
      <path id="XMLID_3166_" d="M10.277,20.5A4.777,4.777,0,1,1,5.5,25.277,4.776,4.776,0,0,1,10.277,20.5Z" transform="translate(-0.197 -20.5)" fill="#33a5b3"/>
      <path id="XMLID_3422_" d="M13.36,34.86A14.285,14.285,0,0,0,23.439,30.7a7.124,7.124,0,0,0-6.5-4.2H9.777a7.124,7.124,0,0,0-6.5,4.2A14.285,14.285,0,0,0,13.36,34.86Z" transform="translate(-3.28 -13.84)" fill="none" stroke="#455a64" stroke-linecap="round" stroke-linejoin="round" stroke-miterlimit="10" stroke-width="1"/>
      <path id="XMLID_2538_" d="M13.36,34.86A14.285,14.285,0,0,0,23.439,30.7a7.124,7.124,0,0,0-6.5-4.2H9.777a7.124,7.124,0,0,0-6.5,4.2A14.285,14.285,0,0,0,13.36,34.86Z" transform="translate(-3.28 -13.84)" fill="none" stroke="#455a64" stroke-linecap="round" stroke-linejoin="round" stroke-miterlimit="10" stroke-width="1.5"/>
      <path id="XMLID_2332_" d="M15.054,25.277A4.777,4.777,0,1,1,10.277,20.5,4.791,4.791,0,0,1,15.054,25.277Z" transform="translate(-0.197 -20.5)" fill="none" stroke="#455a64" stroke-linecap="round" stroke-linejoin="round" stroke-miterlimit="10" stroke-width="1.5"/>
    </g>
  </g>
</svg>
