<svg xmlns="http://www.w3.org/2000/svg" width="44.491" height="44.65" viewBox="0 0 44.491 44.65">
  <g id="Close_on_Property_x2C__key_x2C__sell_house_x2C__hand" transform="translate(0.5 0.707)">
    <g id="XMLID_853_" transform="translate(0 0)">
      <path id="XMLID_2343_" d="M35.955,44.943H1.5V10.488L10.488,1.5H35.955Z" transform="translate(-1.5 -1.5)" fill="#33a5b3"/>
      <path id="XMLID_2410_" d="M10.478,10.488V1.5L1.521,10.488Z" transform="translate(-1.49 -1.5)" fill="#fff"/>
      <path id="XMLID_2298_" d="M22.039,21.173,16.8,22.848a3.744,3.744,0,0,1-4.614-2.165l-.382-.944,11.142-3.66L20.5,12.847c-3.191-4.218.247-5.881.845-6.334l1.733,2.292c-.133-2.532,2.211-3.228,2.731-3.493l5.029,9.581.655.509V11.53c0-5,3.068-4.374,3.817-4.37V19.77l4.338,5.3-.037,13.487H15.92c0-.749-.749-4.494,4.541-4.494l2.893,0,2.974-2.5V27.016Z" transform="translate(3.634 0.399)" fill="#fff"/>
      <path id="XMLID_794_" d="M22.039,21.173,16.8,22.848a3.744,3.744,0,0,1-4.614-2.165l-.382-.944,11.142-3.66L20.5,12.847c-3.191-4.218.247-5.881.845-6.334l1.733,2.292c-.133-2.532,2.211-3.228,2.731-3.493l5.029,9.581.655.509V11.53c0-5,3.068-4.374,3.817-4.37V19.77l4.494,5.339V38.552H15.92c0-.749-.749-4.494,4.541-4.494l2.893,0,2.974-2.5V27.016Z" transform="translate(3.634 0.399)" fill="#ffe0b2"/>
      <path id="XMLID_865_" d="M16.009,20.5a5.243,5.243,0,1,1,0,4.494H10.241l-.749-1.5H7.245l-1.5,1.5-2.247-3L5,20.5Z" transform="translate(-0.504 6.469)" fill="#80d8ff"/>
      <ellipse id="XMLID_814_" cx="1" cy="0.5" rx="1" ry="0.5" transform="translate(20.721 28.722)" fill="#455a64"/>
    </g>
    <g id="XMLID_852_" transform="translate(0 0)">
      <g id="XMLID_842_">
        <path id="XMLID_1191_" d="M35.955,43.445v1.5H1.5V10.488L10.488,1.5H35.955V5.994" transform="translate(-1.5 -1.5)" fill="none" stroke="#455a64" stroke-linecap="round" stroke-linejoin="round" stroke-miterlimit="10" stroke-width="1"/>
        <line id="XMLID_1190_" x2="5.961" transform="translate(4.526 19.474)" fill="none" stroke="#455a64" stroke-linecap="round" stroke-linejoin="round" stroke-miterlimit="10" stroke-width="1"/>
        <line id="XMLID_1189_" x2="11.953" transform="translate(4.526 16.478)" fill="none" stroke="#455a64" stroke-linecap="round" stroke-linejoin="round" stroke-miterlimit="10" stroke-width="1"/>
        <line id="XMLID_898_" x2="4.463" transform="translate(12.016 13.482)" fill="none" stroke="#455a64" stroke-linecap="round" stroke-linejoin="round" stroke-miterlimit="10" stroke-width="1"/>
        <line id="XMLID_862_" x2="4.463" transform="translate(4.526 13.482)" fill="none" stroke="#455a64" stroke-linecap="round" stroke-linejoin="round" stroke-miterlimit="10" stroke-width="1"/>
        <path id="XMLID_858_" d="M10.478,1.5,1.521,10.488h8.957V5.994" transform="translate(-1.49 -1.5)" fill="none" stroke="#455a64" stroke-linecap="round" stroke-linejoin="round" stroke-miterlimit="10" stroke-width="1"/>
        <path id="XMLID_856_" d="M20.506,15.68l-2.448-3.233c-3.191-4.218.247-5.881.845-6.334l9.74,12.807" transform="translate(6.08 0.798)" fill="none" stroke="#455a64" stroke-linecap="round" stroke-linejoin="round" stroke-miterlimit="10" stroke-width="1"/>
        <path id="XMLID_855_" d="M19.337,8.806c-.133-2.532,2.211-3.228,2.731-3.493l5.192,9.859" transform="translate(7.381 0.399)" fill="none" stroke="#455a64" stroke-linecap="round" stroke-linejoin="round" stroke-miterlimit="10" stroke-width="1"/>
        <path id="XMLID_847_" d="M16.3,14l4.65-1.532a1.5,1.5,0,0,1,1.591.428l5.745,6.476" transform="translate(5.872 3.926)" fill="none" stroke="#455a64" stroke-linecap="round" stroke-linejoin="round" stroke-miterlimit="10" stroke-width="1"/>
        <path id="XMLID_846_" d="M39.616,34.972H15.92c0-.749-.749-4.494,4.541-4.494h2.893l2.974-2.5V23.436l-4.287-5.842L16.8,19.268A3.744,3.744,0,0,1,12.191,17.1l-.382-.944L22.951,12.5" transform="translate(3.634 3.978)" fill="none" stroke="#455a64" stroke-linecap="round" stroke-linejoin="round" stroke-miterlimit="10" stroke-width="1"/>
        <path id="XMLID_845_" d="M24.952,10.925c0-5,3.068-4.374,3.817-4.37V19.164l4.338,5.3" transform="translate(10.18 1.004)" fill="none" stroke="#455a64" stroke-linecap="round" stroke-linejoin="round" stroke-miterlimit="10" stroke-width="1"/>
        <path id="XMLID_844_" d="M20.727,17.5a5.228,5.228,0,0,0-4.719,3H5l-1.5,1.5,2.247,3,1.5-1.5H9.492l.749,1.5h5.767a5.236,5.236,0,1,0,4.719-7.49Z" transform="translate(-0.504 6.469)" fill="none" stroke="#455a64" stroke-linecap="round" stroke-linejoin="round" stroke-miterlimit="10" stroke-width="1"/>
        <ellipse id="XMLID_843_" cx="1" cy="0.5" rx="1" ry="0.5" transform="translate(20.721 28.722)" fill="none" stroke="#455a64" stroke-miterlimit="10" stroke-width="1"/>
      </g>
      <g id="XMLID_521_">
        <path id="XMLID_841_" d="M35.955,43.445v1.5H1.5V10.488L10.488,1.5H35.955V5.994" transform="translate(-1.5 -1.5)" fill="none" stroke="#455a64" stroke-linecap="round" stroke-linejoin="round" stroke-miterlimit="10" stroke-width="1"/>
        <line id="XMLID_840_" x2="5.961" transform="translate(4.526 19.474)" fill="none" stroke="#455a64" stroke-linecap="round" stroke-linejoin="round" stroke-miterlimit="10" stroke-width="1"/>
        <line id="XMLID_839_" x2="11.953" transform="translate(4.526 16.478)" fill="none" stroke="#455a64" stroke-linecap="round" stroke-linejoin="round" stroke-miterlimit="10" stroke-width="1"/>
        <line id="XMLID_835_" x2="4.463" transform="translate(12.016 13.482)" fill="none" stroke="#455a64" stroke-linecap="round" stroke-linejoin="round" stroke-miterlimit="10" stroke-width="1"/>
        <line id="XMLID_834_" x2="4.463" transform="translate(4.526 13.482)" fill="none" stroke="#455a64" stroke-linecap="round" stroke-linejoin="round" stroke-miterlimit="10" stroke-width="1"/>
        <path id="XMLID_833_" d="M10.478,1.5,1.521,10.488h8.957V5.994" transform="translate(-1.49 -1.5)" fill="none" stroke="#455a64" stroke-linecap="round" stroke-linejoin="round" stroke-miterlimit="10" stroke-width="1"/>
        <path id="XMLID_827_" d="M20.506,15.68l-2.448-3.233c-3.191-4.218.247-5.881.845-6.334l9.74,12.807" transform="translate(6.08 0.798)" fill="none" stroke="#455a64" stroke-linecap="round" stroke-linejoin="round" stroke-miterlimit="10" stroke-width="1"/>
        <path id="XMLID_826_" d="M19.337,8.806c-.133-2.532,2.211-3.228,2.731-3.493l5.192,9.859" transform="translate(7.381 0.399)" fill="none" stroke="#455a64" stroke-linecap="round" stroke-linejoin="round" stroke-miterlimit="10" stroke-width="1"/>
        <path id="XMLID_821_" d="M16.3,14l4.65-1.532a1.5,1.5,0,0,1,1.591.428l5.745,6.476" transform="translate(5.872 3.926)" fill="none" stroke="#455a64" stroke-linecap="round" stroke-linejoin="round" stroke-miterlimit="10" stroke-width="1"/>
        <path id="XMLID_819_" d="M39.616,34.972H15.92c0-.749-.749-4.494,4.541-4.494h2.893l2.974-2.5V23.436l-4.287-5.842L16.8,19.268A3.744,3.744,0,0,1,12.191,17.1l-.382-.944L22.951,12.5" transform="translate(3.634 3.978)" fill="none" stroke="#455a64" stroke-linecap="round" stroke-linejoin="round" stroke-miterlimit="10" stroke-width="1"/>
        <path id="XMLID_673_" d="M24.952,10.925c0-5,3.068-4.374,3.817-4.37V19.164l4.338,5.3" transform="translate(10.18 1.004)" fill="none" stroke="#455a64" stroke-linecap="round" stroke-linejoin="round" stroke-miterlimit="10" stroke-width="1"/>
        <path id="XMLID_632_" d="M20.727,17.5a5.228,5.228,0,0,0-4.719,3H5l-1.5,1.5,2.247,3,1.5-1.5H9.492l.749,1.5h5.767a5.236,5.236,0,1,0,4.719-7.49Z" transform="translate(-0.504 6.469)" fill="none" stroke="#455a64" stroke-linecap="round" stroke-linejoin="round" stroke-miterlimit="10" stroke-width="1"/>
        <ellipse id="XMLID_569_" cx="1" cy="0.5" rx="1" ry="0.5" transform="translate(20.721 28.722)" fill="none" stroke="#455a64" stroke-linecap="round" stroke-linejoin="round" stroke-miterlimit="10" stroke-width="1"/>
      </g>
    </g>
  </g>
</svg>
