<svg xmlns="http://www.w3.org/2000/svg" width="17.223" height="17.223" viewBox="0 0 17.223 17.223">
  <path id="Icon_awesome-phone-alt" data-name="Icon awesome-phone-alt" d="M16.731,12.171l-3.767-1.615a.807.807,0,0,0-.942.232l-1.668,2.038a12.468,12.468,0,0,1-5.96-5.96L6.432,5.2a.805.805,0,0,0,.232-.942L5.049.488A.813.813,0,0,0,4.124.021L.626.828A.807.807,0,0,0,0,1.615,15.606,15.606,0,0,0,15.608,17.223.807.807,0,0,0,16.4,16.6l.807-3.5a.817.817,0,0,0-.471-.928Z" transform="translate(0 0)" fill="#fff"/>
</svg>
