<svg xmlns="http://www.w3.org/2000/svg" width="23" height="23" viewBox="0 0 23 23">
  <g id="Group_101" data-name="Group 101" transform="translate(-0.292)">
    <circle id="Ellipse_3" data-name="Ellipse 3" cx="11.5" cy="11.5" r="11.5" transform="translate(0.292)" fill="#dee0e3"/>
    <path id="Icon_awesome-twitter" data-name="Icon awesome-twitter" d="M11.872,6.059c.008.118.008.235.008.353a7.663,7.663,0,0,1-7.716,7.716A7.663,7.663,0,0,1,0,12.91a5.61,5.61,0,0,0,.655.034,5.431,5.431,0,0,0,3.367-1.159A2.717,2.717,0,0,1,1.486,9.9,3.42,3.42,0,0,0,2,9.946a2.868,2.868,0,0,0,.714-.092A2.712,2.712,0,0,1,.537,7.192V7.159A2.731,2.731,0,0,0,1.763,7.5a2.716,2.716,0,0,1-.84-3.627A7.708,7.708,0,0,0,6.515,6.714a3.061,3.061,0,0,1-.067-.621,2.714,2.714,0,0,1,4.693-1.855,5.339,5.339,0,0,0,1.721-.655A2.7,2.7,0,0,1,11.67,5.077a5.436,5.436,0,0,0,1.562-.42,5.83,5.83,0,0,1-1.36,1.4Z" transform="translate(5.151 2.605)" fill="#00758d"/>
  </g>
</svg>
